<?xml version="1.0" encoding="utf-8"?>
<!-- Generator: Adobe Illustrator 23.0.5, SVG Export Plug-In . SVG Version: 6.00 Build 0)  -->
<svg version="1.1" id="Layer_1" xmlns="http://www.w3.org/2000/svg" xmlns:xlink="http://www.w3.org/1999/xlink" x="0px" y="0px"
	 viewBox="0 0 25 25" style="enable-background:new 0 0 25 25;" xml:space="preserve">
<path d="M18.4,9.3c-0.3-0.4-0.6-0.8-1-1.3c0,0-0.7-0.9-0.7-0.9c-0.2-0.3-0.4-0.6-0.6-0.9c0,0-0.8-1.1-0.8-1.1c0,0-0.7-0.9-0.7-0.9
	c-1-1.3-1-1.3-1-1.3c0-0.1-0.1-0.2-0.2-0.3c-0.2-0.1-0.3-0.1-0.6-0.1c-0.8,0-0.9-0.1-1.1,0.1c0,0-0.2,0.2-0.4,0.5
	c-0.2,0.2-0.4,0.4-0.5,0.6c0,0,0,0-0.7,0.8c0,0-0.7,0.8-0.7,0.8C9.1,5.7,9,5.9,8.8,6.1c0,0-0.9,1-0.9,1C7.6,7.5,7.3,7.9,7,8.3
	C6.7,8.6,6.4,9,6.1,9.3H1.8l2.5,11.8h16.7l2.5-11.8H18.4z M12.5,4.3l3.8,5h-8L12.5,4.3z M19.5,19.4H5.6L3.8,11h17.4L19.5,19.4z"/>
</svg>
