<?xml version="1.0" encoding="utf-8"?>
<!-- Generator: Adobe Illustrator 23.0.5, SVG Export Plug-In . SVG Version: 6.00 Build 0)  -->
<svg version="1.1" id="Layer_1" xmlns="http://www.w3.org/2000/svg" xmlns:xlink="http://www.w3.org/1999/xlink" x="0px" y="0px"
	 viewBox="0 0 40.5 37" style="enable-background:new 0 0 40.5 37;" xml:space="preserve">
<g>
	<path d="M20.1,16.3c3.8,0,7-3.1,7-7c0-3.9-3.1-7-7-7c-3.9,0-7,3.1-7,7C13.1,13.2,16.3,16.3,20.1,16.3z M20.1,3.8
		c3,0,5.5,2.5,5.5,5.5s-2.5,5.5-5.5,5.5s-5.5-2.5-5.5-5.5S17.1,3.8,20.1,3.8z"/>
	<path d="M20.1,20.6c-8.7,0-16.1,6.5-17.2,15.1l1.5,0.2c1.1-7.8,7.8-13.8,15.8-13.8c7.9,0,14.7,5.9,15.8,13.8l1.5-0.2
		C36.2,27.1,28.8,20.6,20.1,20.6z"/>
</g>
</svg>
