
        <svg xmlns="http://www.w3.org/2000/svg" viewBox="0 0 23 23" style="enable-background:new 0 0 23 23" xml:space="preserve"><path d="M11.5 6.9C9 6.9 6.8 9 6.8 11.6s2.1 4.7 4.7 4.7 4.7-2.1 4.7-4.7c.1-2.6-2.1-4.7-4.7-4.7zm0 8.1c-1.9 0-3.4-1.5-3.4-3.4s1.5-3.4 3.4-3.4 3.4 1.5 3.4 3.4c0 1.8-1.5 3.4-3.4 3.4z"/><path d="M11.5.9C5.7.9.9 5.7.9 11.6c0 4.1 2.3 7.8 6 9.6 1.1.5 2.3.9 3.5 1 .4 0 .8.1 1.2.1s.8 0 1.2-.1c1.2-.1 2.4-.5 3.5-1 3.7-1.8 6-5.5 6-9.6C22.2 5.7 17.4.9 11.5.9zm-4.1 19c-3.2-1.6-5.2-4.8-5.2-8.4 0-5.2 4.2-9.3 9.3-9.3 5.2 0 9.3 4.2 9.3 9.3 0 3.6-2 6.8-5.2 8.4-.8-1.5-2.4-2.5-4.1-2.5-1.7 0-3.3 1-4.1 2.5zm4.1-1.2c1.2 0 2.3.7 2.9 1.7-.1 0-.3.1-.4.1l-.2.1c-.1 0-.2 0-.3.1h-.1c-.2 0-.5.1-.9.1-.7.1-1.4.1-2.1 0-.3 0-.6-.1-.9-.2-.1 0-.2 0-.3-.1H9c-.1 0-.3-.1-.4-.1.6-1 1.7-1.7 2.9-1.7z"/></svg>
   