<?xml version="1.0" encoding="utf-8"?>
<!-- Generator: Adobe Illustrator 23.0.5, SVG Export Plug-In . SVG Version: 6.00 Build 0)  -->
<svg version="1.1" id="Layer_1" xmlns="http://www.w3.org/2000/svg" xmlns:xlink="http://www.w3.org/1999/xlink" x="0px" y="0px"
	 viewBox="0 0 25 25" style="enable-background:new 0 0 25 25;" xml:space="preserve">
<g>
	<path d="M12.5,13.9c3.6,0,6.5-2.9,6.5-6.5s-2.9-6.5-6.5-6.5C8.9,0.9,6,3.8,6,7.4S8.9,13.9,12.5,13.9z M7.6,7.4
		c0-2.7,2.2-4.9,4.9-4.9c2.7,0,4.9,2.2,4.9,4.9c0,2.7-2.2,4.9-4.9,4.9C9.8,12.3,7.6,10.1,7.6,7.4z"/>
	<path d="M16.1,16.4H8.9c-4.3,0-7.8,3.5-7.8,7.8v0.3h1.6v-0.3c0-3.4,2.8-6.2,6.2-6.2h7.3c3.4,0,6.2,2.8,6.2,6.2v0.3h1.6v-0.3
		C23.9,19.9,20.4,16.4,16.1,16.4z"/>
</g>
</svg>
